<svg width="20" height="19" viewBox="0 0 20 19" fill="none" xmlns="http://www.w3.org/2000/svg">
<path fill-rule="evenodd" clip-rule="evenodd" d="M10.001 13.5411C9.58698 13.5411 9.25098 13.2051 9.25098 12.7911V0.750122C9.25098 0.336122 9.58698 0.00012207 10.001 0.00012207C10.415 0.00012207 10.751 0.336122 10.751 0.750122V12.7911C10.751 13.2051 10.415 13.5411 10.001 13.5411Z" fill="#0E0E0E"/>
<path fill-rule="evenodd" clip-rule="evenodd" d="M10.0003 13.5412C9.80134 13.5412 9.60934 13.4622 9.46934 13.3202L6.55334 10.3932C6.26134 10.0992 6.26234 9.62415 6.55534 9.33215C6.84934 9.04015 7.32334 9.04015 7.61534 9.33415L10.0003 11.7292L12.3853 9.33415C12.6773 9.04015 13.1513 9.04015 13.4453 9.33215C13.7383 9.62415 13.7393 10.0992 13.4473 10.3932L10.5313 13.3202C10.3913 13.4622 10.1993 13.5412 10.0003 13.5412Z" fill="#0E0E0E"/>
<mask id="mask0_1318_20606" style="mask-type:luminance" maskUnits="userSpaceOnUse" x="0" y="4" width="20" height="15">
<path fill-rule="evenodd" clip-rule="evenodd" d="M0 4.7345H19.9998V18.4785H0V4.7345Z" fill="white"/>
</mask>
<g mask="url(#mask0_1318_20606)">
<path fill-rule="evenodd" clip-rule="evenodd" d="M15.575 18.4785H4.435C1.99 18.4785 0 16.4895 0 14.0435V9.1585C0 6.7185 1.985 4.7345 4.426 4.7345H5.367C5.781 4.7345 6.117 5.0705 6.117 5.4845C6.117 5.8985 5.781 6.2345 5.367 6.2345H4.426C2.812 6.2345 1.5 7.5455 1.5 9.1585V14.0435C1.5 15.6625 2.816 16.9785 4.435 16.9785H15.575C17.187 16.9785 18.5 15.6655 18.5 14.0535V9.1695C18.5 7.5505 17.183 6.2345 15.566 6.2345H14.634C14.22 6.2345 13.884 5.8985 13.884 5.4845C13.884 5.0705 14.22 4.7345 14.634 4.7345H15.566C18.011 4.7345 20 6.7245 20 9.1695V14.0535C20 16.4935 18.014 18.4785 15.575 18.4785Z" fill="#0E0E0E"/>
</g>
</svg>
