<svg width="19" height="19" viewBox="0 0 19 19" fill="none" xmlns="http://www.w3.org/2000/svg">
<mask id="mask0_1318_20763" style="mask-type:luminance" maskUnits="userSpaceOnUse" x="0" y="0" width="19" height="19">
<path fill-rule="evenodd" clip-rule="evenodd" d="M0 0H18.3332V18.3333H0V0Z" fill="white"/>
</mask>
<g mask="url(#mask0_1318_20763)">
<path fill-rule="evenodd" clip-rule="evenodd" d="M5.192 1.375C2.87375 1.375 1.375 2.96358 1.375 5.423V12.9103C1.375 15.3697 2.87375 16.9583 5.192 16.9583H13.1377C15.4587 16.9583 16.9583 15.3697 16.9583 12.9103V5.423C16.9583 2.96358 15.4587 1.375 13.1395 1.375H5.192ZM13.1377 18.3333H5.192C2.08633 18.3333 0 16.1535 0 12.9103V5.423C0 2.17983 2.08633 0 5.192 0H13.1395C16.2461 0 18.3333 2.17983 18.3333 5.423V12.9103C18.3333 16.1535 16.2461 18.3333 13.1377 18.3333Z" fill="white"/>
</g>
<path fill-rule="evenodd" clip-rule="evenodd" d="M9.16113 13.5208C8.78163 13.5208 8.47363 13.2128 8.47363 12.8333V9.16663C8.47363 8.78713 8.78163 8.47913 9.16113 8.47913C9.54063 8.47913 9.84863 8.78713 9.84863 9.16663V12.8333C9.84863 13.2128 9.54063 13.5208 9.16113 13.5208Z" fill="white"/>
<path fill-rule="evenodd" clip-rule="evenodd" d="M9.16539 6.60372C8.65847 6.60372 8.24414 6.19397 8.24414 5.68705C8.24414 5.18014 8.65022 4.77039 9.15622 4.77039H9.16539C9.67231 4.77039 10.0821 5.18014 10.0821 5.68705C10.0821 6.19397 9.67231 6.60372 9.16539 6.60372Z" fill="white"/>
</svg>
