<svg width="174" height="77" viewBox="0 0 174 77" fill="none" xmlns="http://www.w3.org/2000/svg">
<rect width="174" height="77" fill=""/>
<g clip-path="url(#clip0_1308_36099)">
<rect width="1440" height="2586" transform="translate(-1161 -21)" fill="#"/>
<g filter="url(#filter0_d_1308_36099)">
<rect x="-1161" y="-21" width="1440" height="115" fill=""/>
</g>
<path d="M155.134 19.899C156.924 21.187 157.887 23.1487 158.832 25.0114C163.395 33.9085 163.533 42.9643 159.146 51.9802C157.081 56.2207 154.012 59.6485 150.157 62.3632C149.685 62.7001 148.819 62.938 149.036 63.6909C149.232 64.3846 150.098 64.2459 150.688 64.424C153.009 65.0582 155.429 64.9988 158.006 65.3159C156.845 66.2275 155.625 66.3661 154.484 66.6435C151.966 67.2577 149.39 67.3766 146.813 67.0993C145.75 66.9803 145.082 67.3369 144.609 68.2485C144.511 68.4466 144.393 68.6448 144.275 68.8429C142.583 71.7361 142.78 71.6766 140.99 68.9221C139.987 67.3569 138.944 67.0398 137.193 67.3569C133.594 67.9908 129.994 67.5153 126.453 66.703C126.276 66.6632 126.118 66.584 126.118 66.2275C127.653 65.9103 129.286 66.3264 130.84 65.8509C131.823 65.5338 132.846 65.3159 133.83 64.9988C134.38 64.8203 135.089 64.6816 135.148 64.008C135.207 63.4135 134.597 63.1362 134.144 62.819C133.81 62.5814 133.475 62.3632 133.141 62.1256C128.459 59.0343 125.332 54.6552 123.561 49.4239C122.381 45.976 121.83 42.33 122.125 38.5453C122.342 35.7117 122.558 32.9375 123.384 30.2228C124.545 26.3787 126.532 23.01 129.069 19.9387C129.168 19.8198 129.345 19.7405 129.522 19.6018C129.758 20.2755 129.345 20.7114 129.109 21.1672C127.397 24.6349 126.669 28.3206 126.315 32.1846C125.863 37.2573 126.748 42.0921 128.499 46.7489C130.072 50.9099 132.453 54.5957 135.816 57.5878C136.623 58.3209 137.508 58.9551 138.531 59.3712C139.416 59.7478 139.928 59.4504 139.888 58.4001C139.633 51.2073 139.397 44.0342 139.141 36.8412C138.924 31.1541 138.728 25.4671 138.452 19.7801C138.393 18.5912 138.747 17.7392 139.77 17.1843C140.597 16.7286 141.01 15.5198 141.973 15.5C142.878 15.4604 143.331 16.6097 144.177 16.9664C145.455 17.5212 145.691 18.4723 145.672 19.8C145.573 32.3629 145.554 44.9258 145.514 57.5086C145.514 58.0041 145.436 58.5785 145.927 58.8559C146.518 59.173 146.95 58.7373 147.363 58.3804C153.383 53.2878 156.333 46.5508 157.455 38.8822C158.261 33.3933 157.809 28.0035 155.96 22.7326C155.625 21.8013 155.035 20.9492 154.996 19.9189L155.134 19.899Z" fill="white"/>
<path d="M121.909 60.4609C113.824 55.4672 108.533 46.6892 110.362 36.4247C112.251 25.8037 121.575 18.2937 126.965 17.2236C114.611 30.3414 112.644 44.6481 121.909 60.4609Z" fill="white"/>
<path d="M161.842 60.0642C167.192 53.2277 168.589 45.4999 167.802 37.3755C167.015 29.1918 163.278 22.3753 156.786 16.9062C162.117 17.6196 171.677 25.0108 173.645 35.8101C175.454 45.817 169.376 56.2398 161.842 60.0642Z" fill="white"/>
<path d="M149.862 9C150.295 12.4875 146.97 15.1626 143.725 13.7953C142.406 13.2405 141.364 13.2405 140.164 13.8944C138.138 14.9644 136.328 14.4096 134.715 12.9433C133.712 12.0317 133.653 10.9023 133.928 9.67372C133.987 9.43594 134.086 9.21797 134.341 9.21797C134.597 9.21797 134.676 9.45575 134.774 9.65391C136.446 12.646 139.279 12.8045 141.403 10.0304C141.758 9.57464 141.974 9.43594 142.426 9.95114C144.924 12.7253 147.128 12.5668 149.272 9.45575C149.409 9.27741 149.469 9.03963 149.862 9Z" fill="white"/>
<path d="M155.055 19.9773C155.016 19.898 154.976 19.7989 154.937 19.7197C155.094 19.6602 155.114 19.7791 155.134 19.898L155.055 19.9773Z" fill="white"/>
<path d="M15.5591 15.9545C15.5806 16.2356 15.6449 16.5382 15.6449 16.8192C15.6664 19.6296 16.5678 20.7536 19.3791 21.2942C23.4352 22.0507 27.3196 21.2942 31.1182 19.9107C34.2513 18.7649 37.1056 17.1433 39.8099 14.9818C39.445 14.5495 38.6295 14.4412 38.7153 13.7927C38.8657 12.82 39.6382 12.193 40.2389 11.458C40.7755 13.2305 41.1189 13.3173 44.9605 12.5604C45.0247 12.9494 44.7243 13.0792 44.4667 13.1875C42.2993 14.0088 40.8613 15.7383 39.2302 17.2516C38.4364 17.9866 38.2646 19.0675 38.2646 20.105C38.2646 20.7321 38.8012 21.0132 39.3378 21.186C40.2606 21.467 40.1103 20.5159 40.561 20.0405C40.9258 20.797 41.4624 21.0347 42.149 20.4729C42.4066 20.2567 42.8142 20.1484 42.8142 19.7376C42.7928 19.2622 42.4066 19.0245 42.0204 18.9811C41.1189 18.8728 41.0544 18.3759 41.4407 17.7489C41.7628 17.1867 42.1276 16.4733 42.9001 17.4463C43.308 17.9651 44.0805 17.8786 44.6816 18.073C45.6685 18.3759 46.2265 19.0245 45.9906 20.0835C45.7544 21.1214 45.1964 21.9858 43.9519 21.7915C42.9001 21.6183 42.0417 21.7051 41.1834 22.5049C40.4106 23.2399 39.2947 23.4561 38.3074 22.786C37.3846 22.1374 37.4491 21.186 37.7067 20.2348C37.8353 19.716 37.9856 19.1973 38.1143 18.7C37.5136 18.354 37.256 18.8513 36.9125 19.0675C32.7921 21.9428 28.3283 23.9315 23.3065 24.4072C20.1517 24.7098 17.0828 24.5151 14.7436 21.8345C14.0783 22.5698 14.1427 23.1965 14.8509 23.7587C15.3874 24.191 15.4089 24.6019 15.0226 25.1637C14.6577 25.7043 14.2071 25.899 13.6491 25.5096C12.8336 24.9475 12.2971 25.5315 11.5459 25.7907C9.95782 26.3529 8.77747 27.5636 7.23228 28.1039C6.82453 28.2552 6.26657 28.3849 5.94465 28.1903C3.99171 27.1527 2.23193 27.8013 0.450678 28.666C0.321912 28.7309 0.171686 28.6875 0 28.709C1.43787 26.1582 4.54968 24.8396 7.18938 25.6394C7.38253 25.7043 7.57568 25.7907 7.76883 25.7477C9.35692 25.4017 10.945 24.9694 12.2756 24.0612C13.7135 23.1101 14.2929 21.5534 14.3573 19.8243C14.4431 18.4189 14.9582 17.1652 15.5591 15.9545ZM45.2823 20.2348C45.0892 19.6727 44.574 19.5214 44.0591 19.3701C43.5656 19.2403 43.5225 19.5863 43.4153 19.9537C43.2008 20.6672 43.737 20.6457 44.145 20.7321C44.6171 20.8619 45.0247 20.8619 45.2823 20.2348Z" fill="white"/>
<path d="M36.462 22.6777C36.5047 24.191 36.2258 25.2071 34.6808 25.7473C33.4359 26.2016 32.6204 27.3904 31.7191 28.4065C28.4356 32.1031 25.2594 35.9295 21.2891 38.9346C18.113 41.3341 14.7221 43.2798 10.9236 44.5335C8.24097 45.4201 5.62275 45.5496 3.09037 43.9932C2.8543 43.8419 2.44654 43.8635 2.48946 43.4745C2.53239 43.0636 2.89722 42.9557 3.24059 42.9123C4.6141 42.7825 6.00904 42.7176 7.36105 42.5015C15.0226 41.2044 21.096 36.9889 26.547 31.7356C28.7146 29.6387 30.689 27.3474 32.8136 25.2071C33.8437 24.1477 34.9381 23.1535 36.462 22.6777Z" fill="white"/>
<path d="M55.1972 48.6623C55.8197 49.4622 56.3563 49.8081 57.1501 49.2245C57.4291 49.0083 58.0302 48.9434 57.7295 48.4031C57.3218 47.6463 56.6135 47.8194 55.6266 48.3167C56.0556 47.4735 56.2487 47.0196 56.5063 46.5654C56.8925 45.8953 57.3005 45.4845 57.9657 46.3711C58.4378 46.9762 59.2533 47.0626 59.9399 47.3007C60.7986 47.6033 61.3135 48.1436 61.1203 49.0732C60.9486 49.9379 60.3906 50.9324 59.5109 50.7163C56.8284 50.0243 55.3476 51.9915 53.6092 53.2671C49.5531 56.2288 45.1536 58.3473 40.2177 59.212C38.4149 59.5364 36.5693 59.6877 34.7664 59.3418C33.6291 59.1041 33.0282 59.3203 32.8565 60.531C32.8136 60.7902 32.6634 61.0497 32.4702 61.3089C32.4058 59.9039 32.2985 58.477 32.7063 57.115C32.878 56.5314 33.0926 56.0126 33.9512 56.2073C39.6381 57.6341 44.8532 55.9047 49.9607 53.6346C51.0339 53.1592 52.0212 52.4672 53.0726 51.927C54.4031 51.2135 55.3259 50.3488 55.1972 48.6623ZM59.2533 49.7433C59.6609 49.7217 60.2189 49.83 60.2406 49.3327C60.2834 48.6408 59.5751 48.5978 59.0816 48.4031C58.5022 48.1654 58.395 48.6408 58.3305 49.0083C58.1374 49.8945 58.9957 49.4407 59.2533 49.7433Z" fill="white"/>
<path d="M48.738 27.1961C49.6822 29.1414 51.4205 29.682 53.352 29.8333C58.5027 30.2008 63.4385 29.3145 68.1598 27.1961C69.555 26.569 70.9499 25.8556 71.7869 24.4936C72.4735 23.3696 73.4822 24.1695 74.3191 23.9314C74.5122 23.8884 74.5767 24.2125 74.4908 24.3857C74.2763 24.818 73.9542 25.4881 73.4822 25.2934C72.13 24.7313 71.8296 25.6828 71.2717 26.5256C70.5851 27.5635 69.6623 28.4283 68.5677 29.0335C63.3098 31.9736 57.6871 33.3353 51.6781 32.5354C49.6177 32.2547 48.2659 31.1089 48.2441 29.6171C48.2659 28.7958 48.5876 27.9741 48.738 27.1961Z" fill="white"/>
<path d="M38.522 67.4489C38.4361 68.8543 39.5092 69.2866 40.6035 69.6541C42.3636 70.2378 44.2092 70.2163 46.0331 70.108C50.2823 69.8703 54.446 69.1568 58.2872 67.1463C58.7593 66.8867 59.3173 66.6706 59.6608 66.2816C60.6694 65.1576 61.6995 64.2929 63.3092 65.1791C63.1161 66.0654 62.6868 66.606 61.5923 66.2167C61.1202 66.0439 60.6694 66.1952 60.4336 66.6275C58.2872 70.1295 54.6819 71.124 51.0979 72.0321C48.0504 72.8101 44.9171 73.3292 41.7411 72.8969C41.2045 72.832 40.6679 72.7237 40.1531 72.5724C37.6419 71.816 36.9553 69.5458 38.522 67.4489Z" fill="white"/>
<path d="M111.704 0C111.21 1.38351 110.459 1.96718 109.686 2.5727C105.072 6.07468 100.007 8.84204 94.9425 11.6091C92.7321 12.8198 90.6288 14.1599 88.397 15.6947C88.6115 13.9222 89.6419 13.0359 90.865 12.2791C93.8911 10.3984 97.0671 8.82018 100.2 7.1556C104.063 5.10202 107.905 3.00506 111.704 0Z" fill="white"/>
<path d="M80.478 34.2873C83.4827 32.6657 85.4142 29.9421 87.6029 27.4992C88.9978 25.964 90.1996 24.2564 91.8094 22.9159C92.0884 22.6782 92.4318 22.5485 91.9811 21.9433C91.4659 21.2298 92.1528 20.4949 92.8608 20.084C93.5477 19.695 94.2774 19.414 95.0071 19.0895C95.4148 18.8952 95.8655 18.7439 96.2303 19.1329C96.6166 19.5437 96.2948 19.9542 96.1658 20.3651C95.7796 21.5324 95.1358 22.5485 94.0843 23.1755C91.2942 24.8401 89.3413 27.3045 87.4098 29.8123C86.6587 30.785 85.8432 31.7146 84.9848 32.6227C83.7617 33.9198 82.0878 33.9844 80.478 34.2873Z" fill="white"/>
<path d="M22.9415 61.3311C22.8556 62.455 22.7269 63.2767 22.7269 64.1196C22.7269 65.8275 23.6497 66.8002 25.3665 66.8436C27.6843 66.9085 29.4012 65.7842 30.8391 64.0766C31.1395 63.7087 31.44 63.3197 31.8263 62.801C31.2039 66.6704 27.8131 69.7838 24.6154 69.6321C23.3492 69.5676 22.4908 69.0054 22.0401 67.7947C21.4607 66.2381 21.8255 63.1036 22.9415 61.3311Z" fill="white"/>
<path d="M68.9962 70.0646C70.4342 68.7675 71.8719 67.4486 73.3744 66.0869C73.5675 66.5623 73.8465 67.0596 73.9751 67.6217C74.2327 68.7457 73.2241 69.6968 72.2368 69.2214C71.4643 68.8539 71.1422 69.3512 70.756 69.7402C69.8118 70.6483 68.9962 71.7723 67.3868 71.4481C67.1292 71.4048 66.7858 71.7292 66.4854 71.902C65.3264 72.5506 64.0387 73.1776 62.9659 72.0967C61.8927 71.0373 62.5365 69.7402 63.159 68.5944C62.7083 69.3078 62.88 70.0861 63.6097 70.5834C64.468 71.1886 65.5626 71.2535 66.2064 70.5834C66.7644 70.0213 65.6912 69.8051 65.2836 69.4376C66.0992 68.5513 67.0006 68.0107 68.1593 68.4431C68.6745 68.6377 69.1466 69.0052 68.7386 69.6968C68.6314 69.8051 68.4169 69.913 68.5672 70.1077C68.7173 70.3023 68.8676 70.151 68.9962 70.0646Z" fill="white"/>
<path d="M48.7589 27.1741C48.673 26.9579 48.4799 26.8281 48.3295 27.0013C47.5785 27.7796 46.5698 28.4497 46.1622 29.4008C45.1535 31.6924 43.9517 33.4001 41.0757 32.73C41.9557 31.7355 43.3079 31.2382 44.2948 30.2871C44.7028 29.8981 45.4966 29.5955 44.3593 28.9685C43.4365 28.4712 44.2948 27.7578 44.5524 27.2175C44.7887 26.7202 45.3466 26.0932 45.7973 26.5904C46.9133 27.866 47.4495 26.6338 47.6857 26.0716C48.0506 25.2284 46.9346 25.2933 46.5267 24.9258C46.4412 24.8394 46.2694 24.8179 46.1191 24.7745C46.8274 23.9098 49.8103 23.7585 50.2183 24.6448C50.54 25.3582 50.0248 25.9204 49.381 26.3309C49.0592 26.504 48.3295 26.4391 48.7589 27.1741C48.7589 27.1741 48.7372 27.1956 48.7589 27.1741Z" fill="white"/>
<path d="M87.7533 17.1006C87.4098 19.8246 87.7316 22.5701 86.9377 25.2073C86.8732 25.445 86.766 25.6831 86.6374 25.8774C85.1135 28.3203 82.8385 30.0932 81.1001 32.3414C80.9501 32.5357 80.5639 32.5357 80.2849 32.6655C79.6194 32.9681 78.5679 33.1412 78.3748 32.7304C78.0313 31.9954 79.0831 31.8441 79.5552 31.5631C81.2291 30.5255 82.3023 28.8825 83.74 27.6502C85.8001 25.8774 86.4439 23.8887 86.4011 21.2945C86.4011 19.8246 86.5943 18.2679 87.7533 17.1006Z" fill="white"/>
<path d="M71.4214 33.5948C73.6101 32.341 75.1768 30.741 76.5717 28.9251C76.9365 28.4497 77.2586 27.7578 78.0525 28.5361C78.6749 29.1198 78.6535 28.2551 78.9111 27.9955C79.1687 27.7363 79.147 27.1093 79.6622 27.2605C80.1557 27.3903 80.4992 27.8227 80.585 28.3199C80.8209 29.6386 79.2329 31.0655 78.0311 30.4818C76.9152 29.9412 76.4217 30.3954 75.9279 31.2601C75.005 32.9029 73.7391 34.0487 71.4214 33.5948Z" fill="white"/>
<path d="M63.8459 37.422C63.7815 38.9137 62.5583 39.6917 61.421 39.0216C60.6913 38.5893 60.1975 38.2218 59.704 39.3676C59.1674 40.5783 58.2446 39.9079 57.4721 39.4974C56.4421 38.9352 57.3218 38.4595 57.558 37.9622C58.0087 37.0111 58.6308 36.5572 59.5754 37.4004C60.584 38.3082 60.9703 37.4004 61.4637 36.7734C61.7427 36.4274 62.0003 35.9951 62.5155 36.4274C62.9445 36.7949 63.7601 36.73 63.8459 37.422Z" fill="white"/>
<path d="M33.0497 73.0912C32.5131 73.3938 32.1268 74.2585 31.3328 73.6748C30.8177 73.2858 29.7018 73.0696 30.4744 72.097C30.968 71.4915 31.2899 69.8484 32.6848 71.124C33.4359 71.8159 34.0154 71.7076 34.4874 70.7999C35.024 69.7838 35.6251 70.1728 36.3545 70.6267C37.4921 71.3617 36.6121 71.9672 36.3117 72.5939C35.9041 73.4156 35.3461 73.5454 34.5519 72.9617C34.1012 72.6588 33.3716 71.4266 33.0497 73.0912Z" fill="white"/>
<path d="M55.7555 62.4333C55.691 63.8817 54.4033 64.6167 53.266 63.8817C52.6436 63.4709 52.2146 63.1898 51.8066 64.1843C51.3345 65.3301 50.4976 64.8762 49.7465 64.4439C48.7592 63.8602 49.6175 63.3844 49.8751 62.909C50.3903 61.8927 51.0769 61.5686 51.9997 62.4333C53.0943 63.4493 53.0298 61.9794 53.4805 61.6984C53.824 61.4822 53.9957 60.9415 54.5323 61.3739C54.983 61.6983 55.6696 61.7848 55.7555 62.4333Z" fill="white"/>
<path d="M15.6233 30.8283C15.1941 30.8283 15.2155 31.3037 15.0009 31.5417C14.3786 32.2552 12.8119 32.1684 12.4042 31.3471C12.1466 30.8064 12.6402 30.5038 12.9192 30.2661C13.3484 29.8987 13.4128 28.9475 14.3356 29.315C14.4644 29.358 14.6361 29.4229 14.7219 29.5312C15.6233 30.6121 16.2886 30.2661 16.9324 29.2286C17.5118 28.299 18.0054 29.2286 18.499 29.4229C18.9926 29.6391 19.2287 29.9635 18.9282 30.5906C18.263 32.0171 17.6621 32.2333 16.3529 31.3904C16.1169 31.1958 15.8808 31.0226 15.6233 30.8283Z" fill="white"/>
<path d="M67.3869 20.2347C67.3437 21.6401 65.9919 22.5049 64.9615 21.8993C64.2105 21.467 63.6525 21.1859 63.2449 22.2887C63.0732 22.721 62.6438 23.1315 62.0645 22.8938C61.571 22.6992 60.7768 22.4615 60.7341 22.1374C60.6265 21.4454 61.3779 21.0131 61.7855 20.4724C62.0217 20.1483 62.279 19.7593 62.7297 20.1483C63.9315 21.1429 64.6612 20.4728 65.305 19.4349C65.6271 18.9161 65.9702 19.1757 66.2923 19.4134C66.6358 19.6945 67.3224 19.6945 67.3869 20.2347Z" fill="white"/>
<path d="M50.6045 44.5987C51.3342 44.4041 51.0766 42.0264 52.9436 43.3665C54.0595 44.1664 53.3729 44.8149 52.9436 45.4635C51.8063 47.2363 51.1838 45.0526 50.1751 45.096C49.5744 45.7012 49.5958 47.5174 47.8574 46.3716C46.4411 45.442 47.7071 44.8583 48.0719 44.2746C49.102 42.6531 49.5527 44.5772 50.6045 44.5987Z" fill="white"/>
<path d="M40.7326 45.3773C41.2478 45.5071 41.2047 44.7072 41.6127 44.7937C42.2134 44.945 42.9431 45.1827 43.1793 45.7448C43.4152 46.35 42.7927 46.8906 42.4496 47.4094C42.1275 47.8851 41.6341 48.0794 41.1833 47.712C40.2605 46.977 39.6381 46.8472 38.9301 48.0364C38.4577 48.8147 37.6852 48.1662 37.1272 47.8202C36.3762 47.3664 37.0414 46.934 37.2776 46.6311C37.7066 46.0692 37.9856 45.2045 38.9729 45.3773V45.3558C40.196 46.6095 40.2174 46.6095 40.754 45.3558L40.7326 45.3773Z" fill="white"/>
<path d="M73.3529 36.6003C73.3315 38.0702 72.0869 38.8701 70.9707 38.1781C70.2627 37.7242 69.8978 37.7891 69.5757 38.589C69.0178 39.951 68.1381 39.562 67.1935 39.0213C66.8073 38.8052 66.7859 38.6105 66.979 38.2215C67.7087 36.7297 68.2881 36.449 69.7047 37.2488C70.7562 37.8325 70.7775 36.7516 70.9707 36.4271C71.679 35.2383 72.3659 35.7137 73.0956 36.2974C73.267 36.3407 73.3315 36.5354 73.3529 36.6003Z" fill="white"/>
<path d="M68.6963 31.8011C72.0658 30.2663 73.7397 26.8289 76.7657 24.624C77.0233 25.7698 76.6154 26.5482 75.9071 26.9156C74.6625 27.5857 74.0187 28.7315 73.2462 29.7906C71.6796 31.9743 71.6365 31.9958 68.6963 31.8011Z" fill="white"/>
<path d="M38.6938 65.5254C41.6982 64.1634 43.4579 61.8288 45.5829 59.9046C45.9905 59.5156 46.7416 58.6291 47.235 59.3425C47.643 59.9262 46.9347 60.8343 46.2267 61.0504C44.7887 61.5477 43.9945 62.6717 43.3079 63.839C42.2992 65.5469 40.8398 65.8495 38.6938 65.5254Z" fill="white"/>
<path d="M35.2178 65.6117C36.0975 64.9416 37.0203 64.293 37.8786 63.5796C38.2007 63.32 38.9949 63.039 37.9217 62.5417C37.4282 62.304 37.7072 61.677 37.9431 61.2231C38.2435 60.6609 38.4583 59.9475 39.2094 59.9045C39.8532 59.8611 40.0249 60.4881 39.9605 60.9639C39.7246 62.7364 38.9304 64.2497 37.5996 65.417C36.9775 65.9358 36.033 65.2657 35.2178 65.6117Z" fill="white"/>
<path d="M42.4498 27.585C42.235 29.2495 41.3553 30.5897 40.3894 31.9086C39.3165 33.4001 37.7285 33.3571 35.9688 33.4435C38.3292 31.5627 40.7114 29.963 42.4498 27.585Z" fill="white"/>
<path d="M36.0751 29.0122C36.5258 29.2284 36.8048 29.6823 37.32 29.531C37.749 29.4012 38.2642 29.2714 38.3073 28.7742C38.3286 28.3637 37.8993 28.1041 37.4917 28.0392C37.0196 27.9528 36.3972 28.0392 36.5903 27.3043C36.8048 26.5044 37.191 25.6182 37.9852 25.3586C38.5645 25.1639 39.0152 25.8344 39.2515 26.3962C39.7022 27.6069 38.7576 29.9415 37.5989 30.547C37.191 30.7632 36.762 30.893 36.354 30.5686C35.8606 30.2226 35.8606 29.6823 36.0751 29.0122Z" fill="white"/>
<path d="M56.3989 74.4105C57.4504 73.2862 58.5235 72.9617 59.3391 72.2917C59.7039 72.0106 60.455 71.708 59.4463 71.2107C59.1674 71.081 59.146 70.7569 59.2746 70.4324C59.5322 69.8487 59.7681 68.9625 60.4336 69.1138C61.1847 69.2869 61.2061 70.1298 60.9699 70.8648C60.6268 72.0106 59.9612 72.9836 59.2101 73.9132C58.5022 74.7995 57.5793 74.1724 56.3989 74.4105Z" fill="white"/>
<path d="M33.0284 73.1132C33.243 73.5671 33.6936 73.2645 34.0584 73.4588C35.5178 74.3021 35.6467 75.0155 34.5305 76.2911C33.7151 77.1989 33.243 76.2693 32.6421 76.0316C31.9768 75.7505 32.0412 75.34 32.3631 74.7344C32.6206 74.2157 33.5005 73.9131 33.0284 73.1132C33.0284 73.1132 33.0498 73.0914 33.0284 73.1132Z" fill="white"/>
<path d="M82.7312 19.4354C83.0533 20.019 84.2765 19.9326 84.1047 20.8622C83.9544 21.6406 83.6326 22.6781 82.6453 22.6347C82.0446 22.6132 81.186 22.3106 80.9715 21.4893C80.8428 21.1433 82.3877 19.3923 82.7312 19.4354Z" fill="white"/>
<path d="M44.2524 23.5641C43.8875 24.2345 43.8875 25.4233 42.943 25.4449C42.385 25.4449 41.4194 25.0344 41.2263 24.1696C41.1191 23.7154 42.5781 22.1157 42.9002 22.1591C43.4151 22.2455 44.2951 23.1317 44.2524 23.5641Z" fill="white"/>
<path d="M38.9727 45.3767C38.4579 44.5554 38.1572 43.777 39.1231 43.0202C39.5521 42.6746 39.6811 41.9393 40.4749 42.5448C41.1405 43.0421 41.5908 43.4526 41.0115 44.3392C40.8397 44.5984 40.1532 44.8795 40.7539 45.3767V45.3552C40.1532 45.3552 39.5738 45.3552 38.9727 45.3552V45.3767Z" fill="white"/>
<path d="M63.4807 59.4719C63.0086 59.2123 62.322 59.061 62.0858 58.4343C61.9358 58.0665 63.5024 56.2725 63.8028 56.4453C64.3176 56.7264 65.0904 56.8561 65.1332 57.656C65.1546 58.2396 64.0387 59.4719 63.4807 59.4719Z" fill="white"/>
<path d="M51.4848 41.5944C51.0558 42.3293 50.8624 43.3669 49.9827 43.4967C49.4892 43.5616 48.5019 43.0209 48.6092 42.286C48.7164 41.5076 49.2316 40.5565 50.0254 40.3622C50.4979 40.2539 51.2059 40.924 51.4848 41.5944Z" fill="white"/>
<path d="M9.93696 18.4189C9.46483 19.046 8.73516 18.9811 8.24155 19.3486C7.94112 19.5647 7.68358 19.2621 7.6192 18.9596C7.55482 18.6785 7.76942 18.1379 7.89818 18.2461C8.54201 18.8083 9.22874 17.7704 9.93696 18.4189Z" fill="white"/>
<path d="M75.0911 16.884C74.6621 17.6623 73.9538 17.6838 73.3959 17.9215C73.0955 18.0513 72.7948 17.7702 72.7948 17.4461C72.7734 17.0353 73.0096 17.0568 73.3745 17.1432C73.9324 17.2948 74.4259 16.7108 75.0911 16.884Z" fill="white"/>
<path d="M40.8828 11.026C41.5911 10.2477 42.2777 9.77191 42.986 10.9396C42.2991 10.9396 41.5911 10.5502 40.8828 11.026Z" fill="white"/>
</g>
<defs>
<filter id="filter0_d_1308_36099" x="-1165" y="-21" width="1448" height="123" filterUnits="userSpaceOnUse" color-interpolation-filters="sRGB">
<feFlood flood-opacity="0" result="BackgroundImageFix"/>
<feColorMatrix in="SourceAlpha" type="matrix" values="0 0 0 0 0 0 0 0 0 0 0 0 0 0 0 0 0 0 127 0" result="hardAlpha"/>
<feOffset dy="4"/>
<feGaussianBlur stdDeviation="2"/>
<feComposite in2="hardAlpha" operator="out"/>
<feColorMatrix type="matrix" values="0 0 0 0 0.704167 0 0 0 0 0.704167 0 0 0 0 0.704167 0 0 0 0.5 0"/>
<feBlend mode="normal" in2="BackgroundImageFix" result="effect1_dropShadow_1308_36099"/>
<feBlend mode="normal" in="SourceGraphic" in2="effect1_dropShadow_1308_36099" result="shape"/>
</filter>
<clipPath id="clip0_1308_36099">
<rect width="1440" height="2586" fill="white" transform="translate(-1161 -21)"/>
</clipPath>
</defs>
</svg>
